<mxfile host="65bd71144e">
    <diagram id="4n8MzwYXEJ3s_tlF0SMv" name="Page-1">
        <mxGraphModel dx="388" dy="211" grid="1" gridSize="10" guides="1" tooltips="1" connect="1" arrows="1" fold="1" page="1" pageScale="1" pageWidth="850" pageHeight="1100" math="0" shadow="0">
            <root>
                <mxCell id="0"/>
                <mxCell id="1" parent="0"/>
                <mxCell id="7" value="&lt;span style=&quot;font-size: 20px&quot;&gt;Paquete 1&lt;br&gt;&lt;/span&gt;&lt;br style=&quot;font-size: 14px&quot;&gt;Medidas Aprox: 40x40x20cm = 100cm total como máx.&lt;br&gt;Hasta 20kg" style="html=1;shadow=0;dashed=0;shape=mxgraph.bootstrap.rrect;rSize=5;strokeColor=#DFDFDF;html=1;whiteSpace=wrap;fillColor=#ffffff;fontColor=#000000;verticalAlign=bottom;align=left;spacing=20;spacingBottom=50;fontSize=14;" parent="1" vertex="1">
                    <mxGeometry x="60" y="230" width="250" height="350" as="geometry"/>
                </mxCell>
                <mxCell id="8" value="Image cap" style="html=1;shadow=0;dashed=0;shape=mxgraph.bootstrap.topButton;rSize=5;perimeter=none;whiteSpace=wrap;fillColor=#868E96;strokeColor=#DFDFDF;fontColor=#DEE2E6;resizeWidth=1;fontSize=18;" parent="7" vertex="1">
                    <mxGeometry width="250" height="160" relative="1" as="geometry"/>
                </mxCell>
                <mxCell id="9" value="Armar Pedido" style="html=1;shadow=0;dashed=0;shape=mxgraph.bootstrap.rrect;rSize=5;perimeter=none;whiteSpace=wrap;fillColor=#0085FC;strokeColor=none;fontColor=#ffffff;resizeWidth=1;fontSize=14;" parent="7" vertex="1">
                    <mxGeometry y="1" width="120" height="40" relative="1" as="geometry">
                        <mxPoint x="20" y="-60" as="offset"/>
                    </mxGeometry>
                </mxCell>
                <mxCell id="10" value="&lt;span style=&quot;font-size: 20px&quot;&gt;Paquete 2&lt;/span&gt;&lt;br style=&quot;font-size: 14px&quot;&gt;Medidas Aprox: 70x70x70cm = 210cm total como máx.&lt;br&gt;Hasta 65kg" style="html=1;shadow=0;dashed=0;shape=mxgraph.bootstrap.rrect;rSize=5;strokeColor=#DFDFDF;html=1;whiteSpace=wrap;fillColor=#ffffff;fontColor=#000000;verticalAlign=bottom;align=left;spacing=20;spacingBottom=50;fontSize=14;" parent="1" vertex="1">
                    <mxGeometry x="350" y="230" width="250" height="350" as="geometry"/>
                </mxCell>
                <mxCell id="11" value="Image cap" style="html=1;shadow=0;dashed=0;shape=mxgraph.bootstrap.topButton;rSize=5;perimeter=none;whiteSpace=wrap;fillColor=#868E96;strokeColor=#DFDFDF;fontColor=#DEE2E6;resizeWidth=1;fontSize=18;" parent="10" vertex="1">
                    <mxGeometry width="250" height="160" relative="1" as="geometry"/>
                </mxCell>
                <mxCell id="12" value="Armar Pedido" style="html=1;shadow=0;dashed=0;shape=mxgraph.bootstrap.rrect;rSize=5;perimeter=none;whiteSpace=wrap;fillColor=#0085FC;strokeColor=none;fontColor=#ffffff;resizeWidth=1;fontSize=14;" parent="10" vertex="1">
                    <mxGeometry y="1" width="120" height="40" relative="1" as="geometry">
                        <mxPoint x="20" y="-60" as="offset"/>
                    </mxGeometry>
                </mxCell>
                <mxCell id="13" value="&lt;span style=&quot;font-size: 20px&quot;&gt;Paquete 3&lt;br&gt;&lt;/span&gt;&lt;br style=&quot;font-size: 14px&quot;&gt;Medidas Aprox: 180x70x70cm = 320cm total como máx.&lt;br&gt;Hasta 100kg" style="html=1;shadow=0;dashed=0;shape=mxgraph.bootstrap.rrect;rSize=5;strokeColor=#DFDFDF;html=1;whiteSpace=wrap;fillColor=#ffffff;fontColor=#000000;verticalAlign=bottom;align=left;spacing=20;spacingBottom=50;fontSize=14;" parent="1" vertex="1">
                    <mxGeometry x="60" y="610" width="250" height="350" as="geometry"/>
                </mxCell>
                <mxCell id="14" value="Image cap" style="html=1;shadow=0;dashed=0;shape=mxgraph.bootstrap.topButton;rSize=5;perimeter=none;whiteSpace=wrap;fillColor=#868E96;strokeColor=#DFDFDF;fontColor=#DEE2E6;resizeWidth=1;fontSize=18;" parent="13" vertex="1">
                    <mxGeometry width="250" height="160" relative="1" as="geometry"/>
                </mxCell>
                <mxCell id="15" value="Armar Pedido" style="html=1;shadow=0;dashed=0;shape=mxgraph.bootstrap.rrect;rSize=5;perimeter=none;whiteSpace=wrap;fillColor=#0085FC;strokeColor=none;fontColor=#ffffff;resizeWidth=1;fontSize=14;" parent="13" vertex="1">
                    <mxGeometry y="1" width="120" height="40" relative="1" as="geometry">
                        <mxPoint x="20" y="-60" as="offset"/>
                    </mxGeometry>
                </mxCell>
                <mxCell id="24" value="" style="shape=image;verticalLabelPosition=bottom;labelBackgroundColor=#ffffff;verticalAlign=top;aspect=fixed;imageAspect=0;image=data:image/png,iVBORw0KGgoAAAANSUhEUgAAAegAAAG0CAYAAAD5HLSAAAAABHNCSVQICAgIfAhkiAAAIABJREFUeF7snQlclNX+xp8BRkAdFNwVcQEEVBQEFVxQsUwlo1JTb2hq2k2tW1n/9rqtt/XqvbfMblaaWplaV80lc9dyRcEVSNFcwEQCZGRRlvmfM8MIszAM8AqCz/l8Rpn3nPM7v/M9532f9yzvO6r09HSds7Mz1Go1HB0doVKpTD5gIAESIAESIAESqHECDjVeIgskARIgARIgARKokAAFukJETEACJEACJEACNU+AAl3zzFkiCZAACZAACVRIgAJdISImIAESIAESIIGaJ0CBrnnmLJEESIAESIAEKiRAga4QEROQAAmQAAmQQM0ToEDXPHOWSAIkQAIkQAIVEqBAV4iICUiABEiABEig5glQoGueOUskARIgARIggQoJUKArRMQEJEACJEACJFDzBCjQNc+cJZIACZAACZBAhQQo0BUiYgISIAESIAESqHkCFOiaZ84SSYAESIAESKBCAhToChExAQmQAAmQAAnUPAEKdM0zZ4kkQAIkQAIkUCEBpwpT2JPg2jXg0CHg1CkgMxPIugI0bQK4uwO+vkBwMCB+c5qBBEiABEiABEjAPgLVE+j0dGDZMmDvPuD69fJLbNAA6BcOjBsHNGtWfjrGkAAJkAAJkAAJ6Amo0tPTdc5idKtWq+Ho6AiVSmXyscpJpwNWrQa+/962MJtnlkI9dgxwzz2iZJV5LL+TAAmQAAmQwC1B4OrVq3o/GjduXGv+VH4NurAQ+Phj4NtvKyfOsopylP31N8C8eYC0w0ACJEACJEACtyCB8+fPQ35qM1ReoD/6CNj1S/V83rnLIPLVs8LcJEACJEACJKA4gUIxgLx48aL+I/+urVA5gV6zBtizVxlfd+8B1q5VxhatkAAJkAAJkIBCBMqOnGtzFG2/QF+6ZNgQphAAvZlvxHR3WpqSFmmLBEiABEiABKpFQI6cjaHs39UyWoXM9gv0ypVi3bioCkXYyCLtyY1mDCRAAiRAAiRwCxCQgpyfn3/DE/l3bYm0fQKdlVX9defywMv1aGmfoQyBazj0wd3oE/UBDuaLHfMMJEACJHCbE8iU79ioINiTxpoJuWM7S+iQ/Pzxxx8WSeQxY7xxd7dFoptwwL7noGNjgeLiiovv1hV46inAzQ145RUg6beK8xSJUbR8yUlkZMVpraS4tvH/EDTje4hXpRiCozOcNS3h2y0MQ+6diIdHd4fw5kbY/koYZqyLwLz97yHSqfYe9bLlhy71B3yypgn+uuBphLjcHB91J/6NEaP34cEtX2Ni25tThpXmqtoh7QXsTSxGcG8vGF93k73mCYQ/dQIPf78Rs4Os32fqoMWPj0Xgn+4fY8eb/atWNnORAAnUOoGEhAT9KDYgIABt2rSx6o+Ml+lkvExnK8i0J0+etHsDmBR+a+Lv5OQk3sXlW65PtnywJ84+gY4/XLGtqJHAxImAg/WLpU0DcfFVFmhpV+16N97d9iaGqKXQXMOV9As4sWcNFs8Zh3Ubn8Wn/5kEnxKh6xb1DF7q0RaBtSjO0ufy/JCisuO/y+Hy6L/wsH8VWNoEXTcjD308FTN+m4odC0sF2q37aLz2xlB4e93iNxd1Ezm9JoFbikDTpk31Ai0FWAZzkS4bZ4/jMr8cCVd3A5i0Y+6LPeXbm8Y+gU5NtW2vbVsgJgY4fwFwFi8jad3adnrz2DIL8uZR9nxXObpA4+EGtxLRdXNvgfa+wRh2R3fMGvsqnp3fCz88Fag31SJsDGLCbFiVy+yONuIViirPDxU0GPz6/zBYoXLqrJmK2qFzBMZ2rrO1o+MkQAKVIGAUQSnQ5iJtLtwVjZ6NxcqRr3wJidFeJdzRJ7U1mq+srfLS2zdEuyLerW0rSAF/513g5ZeBqzm2UlqPs2NtwXpG20dVbUdj9kMBSF6xHLsLDWu5pz4Zg+D7PsM5kVWHZHxyXw88vPBXLH9zEoZF9EXErFXIlnF5yVjz/iyMGhSMgKAgDLnvCXyy6axJgZf3fY2/PzQcfYMC0LVnBKIffhsrDpeyshVf1g9pVI6cDy15HQ+OCENQ9wAEDxa+/3MDzpfuVcCet4ah7xOrcOiHNzB19CgMG9IXYXf8Ba+vOls6xW8FiS4rHp8/NxHDwroioNcgPPD4x9iWkmeR8vK+hXi+pD7Bfe7ExJeW4fiV8tfAjf4cX/2ewZ87B2Fw1BS8u/yoiT86bTyW/L20/OiZovyf5yK661+wJNVgX9rq/eQy7FnyEh4cFob+A5/D5t+/xNhAb4xZcApXdryIIN/O8Pd7FKtzRJ79byEyYApW3/DvGk799C/MuHewnl/YXYKL8OOKfOtdmWCPLxZgeIAESKDWCZSdujZOeVdVnI2VkTYDAwMhp6rtDTKtzHMzR85GX+wT6Nzcin0/ckTMLt9YCa44fdkUeXbYr5zFG6l9hLh6/HkCJ85bE5om0DRVYe/cdxAf8DJ+3LkPOz+9V4xhL2DFMw/hveP+eHHZHiTE78NXT3XC7pcfw5zDBmHLj3sfDz/8H6QEP4svN+zFjh//jZnhOdi3S0o/UFG8aXWu4cQnj2Daf39H//9bgk2792H1vyagwY6XMfW5DfobBhnc3DTQbp+DfycMwHvf/Iift+3Dmuc7Y/urL2D5Get7BHTFyZj/6DR8esoPT3+xHfu2r8SrUTn44rUlOF1mU77e3xk/wGHUf7DpYALifv43Rl1fjBnPrcZlU2dvfJP+ZO+di/f39cDrXwt/Nu3A6vcjcPLf0/HMSvFYngiy/K8fn45/H/PD458Zyn/7nhx8/vbnSCjz/L+0lbNpLv51egDeXbMXv+5+D3d0nIoVR5OxcroPmgz6B+JPnkZi0qeIbmQ5rZ29+S1Me3odXKLfxo+79uHnBX+D95738fE+7Q1/7fWlnOryMAmQQC0TMBfpsqNpe0fO5lVo0aIFevXqZZdIS3GWaWWemgj2CXTDhjfXl0Y3712nuiZi6lt1Ddk2BvbOfabh+TFdbmxAQty3+HSrFx595zGEt3ERdXeGV8STmH2vDj+tPCRGu+lY89+VyBr6GuY8GYlubZqghVcw7pr2D3z4WGCF8eYwi/N34fMvk9D/6bmYGemLFmKTnVfQGLzz1ng4bvocS08axNdZTOGrGwzCX58eghYlu6WaDx2FQW5HcCDe+s3RtX3fYunhLnh07ou4q1tLIfIt0H34c3h9ak+IxQh9MNYnP+p5/F1wcJNT/E27YszzD6PL7uX4qWSUa+633p/8nrj/ueFoLzGJ0KTbFLzwUGfsmr8Yx8SshSr2W3y5zxePfvgiRvUoLf/dSaXly3x6W86D8GgZW+bllfddJ26o1ixegwZRL+DdKf3R3l20uVcYHhTt109d2sXt9aW8cnicBEig9gmUFWnpjfn3qngop7rlOndFQaapyXdz2zeu9/AAtKUjkYoqUel4+bOUNymormQjW+cMt0blF9C2o6fJTu8Lx0/gj8ITWDDjHiwvky37wmkUD7gspk2dEHc4FwGzwkzyGZPqdMk24809UZ0+joQcf4wJKbvfXAhnQBgCGi1C4jEhvr6u+mwOnu3habKzW+xad1bhWo4cZxvSlLV/+bcE5LYNRpjZTm3vXsFo6RinT2rwNxPn8RrGHClRWnlcpcWfjs0QkiZmH8rZ6e3Yzhddm5iOaH0CfdBwzgkcFy41SUhGhiy/vWkazzLlG/118PSBdxV2ret0Z3D8ZBH8RvUqvckSRlUufRHevRHEMwL6cL4Svhh94v8kQAK3HgHj9LJ89KmqI2fzWtnz+JQ9acztVue7fQLdqSNw1nT9tTqFWuTt3MnikFIHjsfGIbNFMLqaCYRN+2Lqt4HXg/jk+2fQ3cpu72KdeHZbBitxhoiSn94sN9566c6wnLp1EcdsDP6tGzI5ahwnmyUVo+TSGOmvM+6YvQIfja34LtLEkmB1Ta7vl62r+F7646M2fobU3Psqb84z1ETlZOU3x01sVsIXc9/4nQRI4JYiIEVaqXVg+TKSsi8nKa+ixnQuLqUDmfLSKnHcviluf//Kl2W2OcemgS5dbEZXNVJ3/nvMW5yIgHEPoF8lxLJ9gDc8UuOwt5ypXZVKbArzd0TCnj031ofL+lhRvHl9dF7dxEg5EfFlNpjJNKqThxCX2xH+AVaEx9xIOd8NdTmBOLM3qqYfOYELJWvQRn+TDhyyudnMWhE5Z/ZY2D5+IB5FrbvCR0wItOgSgIaCZZzZgwAXjsQjrcwauDXbN445NYBKrFdbn8SXv1zqrW+PRPE8fdk0ugKx9yCxdH+DIr7YdJSRJEACdZGAtWec27dvD/kxD9bSmqdR6rt9Ah0SYv/vN7/4IvDAOOC3k/b5KH8XWiy6VyfoivKhvXwZl0s+5xP2YuPC1zF2/Cv4LeQVvDGzcjcAutDJmNL/HD596h9Yc+gcsrMv4/yxHVjy6jS8JDY/qdAc9zwyFq5b3sUL87bi1GUxjZ5yAtsXvYhnPj5aYbx5XR0aD8S0qX7Y/uHz+HzXSVFeNs7Fr8VrLy1G0R2zMLYaz0PrQifgwdBjWPTyAhySU9UipB1eiFcX7L8xyjXWR7X+dTz1+TZDfS4lY/fauZj1149xsGQHvLnf8rtjw2R88/LH2J6Upuckd5i/sPgCek9/ACHipsi572jE9PwNnz77ITYeN6Q5JjaDPf/lCWvmrB5r7+MJ1bE1WL77pHiS77KFUOv9n3oPCta8g3d/LNnRnncBm96dhw1XS+8ClPDFqoM8SAIkUKcJyKlyY5DrzH369NG/gER+5N9l16drcprbvinuJk0gnm8BEhKVbwRp147FeVsFF+StxVP9S34ZS0xpOmvaw7dnGIY/uxwx0aZvErNlxxincvBEzEdfoclHc7DgqWg8l5oPl9beCIl8ADMjWuqTNQl/GUs/a45/fvI+Hpx/FtkNxNvLeg/DxMe97Io39cMZXWd+hgWaOfjnPybi49+vQNWqK/qNegtfzhqB6uwXVDl4Y+pHC9Dgw3/i+VHzkebohg6Bo/DoS9OQ+uSBG24Y6tNW1Oc9PPivk9DqmqO9YHjXX2ZZneY3ZnTuHINXJhRiyTPRePJMFlzaBWPEs4vx1F866JOoHAIw4+N5aPDBx/jnw4Nx/noLBPYfi0dfm4R/zyot35SH6bfmUf+H5w6+iHmP3IPPGozCXPkWOLMMTQa+jMUfzsc/5j2Evq/loWlzb4THPIbH+h3B5yVplfDFlp+MIwESqJsEtGKPVXlvBZObwuTObflIl3z7WE2OoFXp6ek6Z2dnqNVqODo6iulClcnnBu5t24D5nypPf+YMYPBg5e3S4k0nIJ/lHrtpGFb/7xEYbktuepEsgARIgAQUJSB/7/nMmTPo1KlThY9aVSatEk7aN8UtS+rXD9BolCiz1Ia0Fx6urE1aIwESIAESIAE7CRhHzva8rKQyae0s3mYy+wVajLIxUrxvW8kQFSXmo6u+AUpJV2iLBEiABEiABG4lAvZPcUuv5RvFZj0G5FTvwR89gEbiweRP5olHdy2f3b2VANEXEiABEiABEqgNAvaPoKV38o1iI0Yo46ccjVOclWFJKyRAAiRAAvWOQOUEWlZf/qxkddeiZX5ph4EESIAESIAESMAqgcoLtJyanjDeqjG7D8r8N/v93nY7w4QkQAIkQAIkcOsRqLxAyzoMHQr4eFetNp06GvJXLTdzkQAJkAAJkMBtQaBqAi3f/vXwNPvfLmZEWdV8t0VTsJIkQAIkQAIkUEqgagIt83t3Bu68o3IsZfouvpXLw9QkQAIkQAIkcBsSqLpAS1gTJwKtWtmHraV4YWVMjH1pmYoESIAESIAEbnMC1RNo+ZKRx8Vz0Q4VmJFT2zNnAjX0E123eZuy+iRAAiRAAvWAQAXKakcN5U9FVvTI1Ki7ga5d7TDGJCRAAiRAAiRAApJA9QVaWvnLXwBfH+tEO3cCxlfzsSzrlnmUBEiABEiABOotAWUEWvwKFp580vD6zrKo5LPOTz0F8RMh9RYgK0YCJEACJEACN4OAMgItPWshNoHNeLT00Sv9urP4KUl7N5HdjNrRJgmQAAmQAAnUUQLKCbQE0KcPcN99BhT332/4XkfB0G0SIAESIAESqE0Cys89j3sAaCxeByp/SpKBBEiABEiABEigSgQq93OTVSqCmUiABEiABEiABCpLQNkp7sqWzvQkQAIkQAIkQAJWCVCgrWLhQRIgARIgARKoXQIU6Nrlz9JJgARIgARIwCoBCrRVLDxIAiRAAiRAArVLgAJdu/xZOgmQAAmQAAlYJUCBtoqFB0mABEiABEigdglQoGuXP0snARIgARIgAasEKNBWsfAgCZAACZAACdQuAQp07fJn6SRAAiRAAiRglQAF2ioWHiQBEiABEiCB2iVAga5d/iydBEiABEiABKwSoEBbxcKDJEACJEACJFC7BCjQtcufpZMACZAACZCAVQIUaKtYeJAESIAESIAEapcABboW+RdejMeu3SehrUUfWDQJkAAJkMCtScDp1nTLfq9SNn+MeZtTAXVJHgdXeLTsgICQCET06QiN8RYk+Ue8/XkqhvzfI+jnobK/gGqmlP7Nj/fBjNnD0a7M7ZBOdxk7V21B5sAZ0FSjjLStn2Jr86kY36NBNawwKwmQAAmQwK1GoM4LtATaKCQGL43tamBbnIeM349h58almH9qBKbFhMBDxrQdgJi/5sLDrebEWRbbKvR+TPd3QSuzuYqrh7fiXKfRiOnesEp9Ii3hAFJcOqOl2kXcm+QjLekwUht0Q1CnqtmrkhPMRAIkQAIkcNMI1L8pbjmC7twb0VPGwjt1A36OzzHAc3VHh47toKnhWxKnpm3RwdMD5sVqgsZh8vCOFsftbWnXhmpoj6/Hql0ncWTjt9iZfB1OLvbmZjoSIAESIIFbnYC5btzq/trtn8rFD6GBjbDoWDIKg3rAMW0bPp2fjsGvjIW/6jf8763taBjljcyDicjK9cLgx0chIP8cdq7biLjzV1AgxqXNvCMRPSoQHvrbmEKkHf0ZP20/irNZ16Fu2Aodg4cgarCvmEYvPw4Hv8Kco354dmoYXIWV3JS9WL/uVyRcygWc3NCxeySiRogyREvoLmzA3OWF6D+gGEnHLiE/NxtaJ29EjrkXwc1NR/6aDkEIV11G0p+NEXBdC68+/dDdLI3dsJiQBEiABG5zAps2bYL82Ap33nkn5KemQr0VaAmwZSsPFJxMw5/ybxOijnBQJ+NgfDdMnzILLaU4IhO7v1mGpE4T8MjY9kJMryJx9UJ8t7kpZgxrj9zk9Viy+jKCHpyBSZ3cUJh9DnHx2SgQ4m0rzrg0LovXZcfi+8X74DZiMl4IaganXHFD8N0SLFrnjL9Fd4FjAxc4pW/HkawpiJnaUfhQiJStC/D5+kPwnxSiF3hjkP7G776C0OjR6H51O7779RR6RftWeURugodfSIAESOA2I2AU3vJEuqbFWeKvf1PcdnUqNdQOGviH9daLsz6kxmLvJV8MHiTFWYbG8IsIBo4dxwWxrp20Lx4N+kRhqBBnGZzcvNA7ortY37YVp096I2QejcXpNgMwTIqzPNrQCwPv7AXEH8bJAp0+ncqpM0IGdCjxwQltO3nCNe0yMorLGJLp4I7e48cguKkKas8hiKE4mwLiNxIgARKoJIHyRLi845U0X+nk9XoEnXYpA2qPYDSzhkXnChexjmsMquxMZGuTsH5xZunO7wIttMWdkSsehMrI1MHdX7/dzCToxEi7vDjztNosLVzdNSYjYTRxh1tRKrR5htROjg3h6mK2ka24QEy5M5AACZAACdxsAuYj6doSZ1nPeivQutwkxB7Ngd8wb30lDePT8ptW11gIZSN/DJs4BgFq853eechpAvyWmSEMtDYxohIjbY9y4sxL0zTVIC9ZK8bcKBVprRbZjm7QyGF7vnkOficBEiABEqhpAmXXmWtyzdm8nvVvils+ZnX6AFYvXIFkz5GICmpkXmfr39sFoWfzJGz/6RS0hYYkhVnJiE+4JL64wr9XILL3bcTu82Jzlwy5qWINOBEZNuNMi3IPDEXnlF+wNSHbEJGfij2b4oCgnvC1uCkwzctvJEACJEACNUegNkfOxlrWixF0zsGlePFISZXEY1bNmnvBv3cMZsgXldjZnipVC0ROnAD1uq347wfLxChXjYaN28C/33B0FzZcu96DKXkbsfb7j7AlRwe1qwYdAyPhLdaGbcWVLV7lForRkwrFLu4FePeHXBTIXdxdR2DyiC52jfLtrAqTkQAJkAAJ1AMCqvT0dJ2zszPUajUcHR2hUqlMPvWgjqwCCZAACZAACdQ5AvVvirvONQEdJgESIAESIAFLAhRoSyY8QgIkQAIkQAK1ToACXetNQAdIgARIgARIwJIABdqSCY+QAAmQAAmQQK0ToEDXehPQARIgARIgARKwJECBtmTCIyRAAiRAAiRQ6wQo0LXeBHSABEiABEiABCwJUKAtmfAICZAACZAACdQ6gTr9JrF58+bVOkA6QAIkQAIkQAKSwKxZsxQFwTeJKYqTxkiABEiABEhAGQKc4laGI62QAAmQAAmQgKIEKNCK4qQxEiABEiABElCGAAVaGY60QgIkQAIkQAKKEqBAK4qTxkiABEiABEhAGQIUaGU40goJkAAJkAAJKEqAAq0oThojARIgARIgAWUIUKCV4UgrJEACJEACJKAoAQq0ojhpjARIgARIgASUIUCBVoYjrZAACZAACZCAogQo0IripDESIAESIAESUIYABVoZjrRCAiRAAiRAAooSoEAripPGSIAESIAESEAZAhRoZTjSCgmQAAmQAAkoSoACrShOGiMBEiABEiABZQhQoJXhSCskQAIkQAIkoCgBCrSiOGmMBEiABEiABJQhQIFWhiOtkAAJkAAJkICiBCjQiuKkMRIgARIgARJQhgAFWhmOtEICJEACJEACihKgQCuKk8ZIgARIgARIQBkCFGhlONIKCZAACZAACShKgAKtKE4aIwESIAESIAFlCFCgleFIKyRAAiRAAiSgKAEKtKI4aYwESIAESIAElCFAgVaGI62QAAlUm8BVJP66E8cvFlTbEg2QQH0g4FTXK5Gy+WPM25wKqEtq4uAKj5YdEBASgYg+HaFR+BaksBhwUtgmkn/Em1/sQaGrKwwNUohCBw06dhuIqJF90bIBIOs5P94HM2YPRzulyzfpBIVIO7wVW3YfxanUP5EneDZr6Y3AsAgMDPGEa212GAtOBmccHL1xz9MTEOis0h9QrI3OrMf8I4J5dJfarPUtWnYeUg6KfrL3GJLTrqBA9IzWXt0RPGgoBvq4VcnnvGPrsf5YK8SEG09mUzPaA19hzlE/PDs1rHb7YYlbOl0q9nyzCjtPX0JesSs8uw3ByHv6op04Xy0C+5IFEh6omECdF2hZxUYhMXhpbFdDbYvzkPH7MezcuBTzT43AtJgQeFTMwY4UVxH3zSf4zf9JjOtl7Qy0w4SNJM4eEZgoxLejUXzzU7F7xVIs+lGD2aO7olXo/Zju74JWN1mcz25dgCUHGyLi7hjc69dKXAgNPPdsWY/dradjaDuDCNqoyk2Ncm4egalPlneTokwbFV48jgPpTdClMeDqpIL2YhIS0xohuKdnyQ3UTa1iHTBeiLObF2HJ4SaIjJ6Gv/g0g5M47y4c34YN332ClKiZGB9UOZHWFZ3D1j1FGDIuAi1vah9XEq8arXqNxhMTxHmSfw5bli7Ed5vaYnZU+xuFsC8pyfv2s1VnTgW7m0aOoDv3RvSUsfBO3YCf43PszmoroU6MEbRX88S/NRRc2iJ8SCCcfkvCGTlqb9oWHTw9bqpA6NL3Yt3OYoTHTEJEgLjoyN5RwjNq+iO1Ls4VkVesjZxd4Jh2EKvXHMLJA+uwYs95odS1OndQUdVrNF7fT35xQETMBPST4ixLF/3EM3AkYqI749y6LTh1TVcpn1SOXoiaPgHBTWv3BrAyTqtULeBtPE8aesGngxvytFpTE+xLlUHKtGYE6sUI2lqrqlz8EBrYCIuOJaMwqIf+IlJ48QDWrtuDU9nXxQXFDZ36j0R0bzkqysP+xe8jsfMD6HhxL05lFSAvrwBu3Ybh3iG+aHxlLxZ+uRmnLgmxT3kP725yhe+Iv2F0Dwekxf2MtTuOIkV7HQ0atoV/xF2I0ttUKjjpZ+/Np/e0CZuwYuMhpOSIujh6wDckEsOGBsBDiKruajJ2rduI3af+FDcUajTrGIrIqKHwr+Dil5l0DJfbhGBiG9sXSV12Erau3ogDv18RwuWBDqGh0BzdhGtDX8Torg4ouByPdau3IPFSrmHq06c3hkRFwKexsFuUiWMbV+GnuAv66fPWfgPRVbUD+5zGYvaoTlWGpsssr40aIFe0+88/7UTiBeFPAze09g7FsOH90EH6YyU4eXijd3ghLp7OFcslV1Hk0we9u1RuRGjFbJ09lLjyDSz9IwKzHxusn43KTBD9xCsIvVtZ8nPpFgK/td/i+O/R8PHLR9zS93GwwyxMG9hcX3+d7hzWz1kB3DcbUZ1F/mItEretxpbDf4izEGjYLAiR94m+6mZpW5+/WKxTb1qCnYd+R0Y+0Mw3EqPH9L8xrZx39hesWvsrTmWI89HNCyH9PfH7mt/R6/mp6NXQWN46bIk9iYzratF926JHRBQiA8WNRu457BTnTdx5OWUvzhvvSESPCjScUxc2YO7yQvTvdx3HD/2BHI9wTB7fC5qSVtUVJCP+xHV4D+1QcsTwH/uSCQ5+qSQB5XSkkgXXRPKWrTxQcDINf4rCWl49jJWL96PxfZPxjLjY6sSU1KYvfsDGpjMQ5atGwwaFSPolDv7TJmNqcxV0RZexa+GXWOb0EKYPCsOUp/2w67P/4Fzoc4gpmeLOTfwBCzfmY8hDszG1jRoFl2Lx/aKvsdL5MYzv0ah6VRQXi11bjgJd74WnEF158TIGXf4JrFt5Au0mPY6pHRoCuanbKKFBAAAgAElEQVSIj8vQR+t0wu8ly3DM6wHMesFXXEC0OCWm+79bDEx+7A6b69cZ6Vq4tvS4cdGxVgG9/a9XIsnzfsx6KcBgf9NSLEkpQA99hqs4sHYd0r0fxjPTWsOpUIuz8QkoELMA4hYJZ39ehFXnAzHxiclCIIvw54n1WLpMtFBva6XZf0zlbr2NdKLdv/9yC9SRMXhiilhDL8jEqdgEsWZo23ZqbDyc+kdjZOeLWL9iP1K622Zn21rdjm3XawSic7xgvEXJyBD9pJlc/rASVB5o4VGE30QaoKKloEKkbP0Kay70xuS/xaCluBplxH+HRct3o+W0/laXpgqSY5HULQaPPOcJF3EO//zFQmzY44dpg5pDlxWLZUv3wi1qGl4IKhHc75bg1PXW6KV31VDeysQOGPPX58UNqxp5F+MRm5oHR2Ri9zfLkNRpAh4Z217UTdwIrBZT1pubYsYwMWXdwAVO6dtxJGcapsxsb3YDnofjq1fjnNcoTLNy3rMvWeknPGQXgXot0GUJZB4WJ3abMDxbMhJSuXhhYHgTfBR3Rgi02ATkoEaTgFD0EeIsg8qxBfoN6IJd6+ORMnA42losBuQhKfYomoXPQh8hzjKoW4mRWb9YfCSO5/Wo3EaWaxk7sfCdA6UnvhgVd+wxApOHdbEcjTvK0gpwNTMPhUKgncTIPah/W70PugvigpPRBSOm+ZRskNPAe5gYkRxag/hzQ9Guo/WRiT6zPUFe0NKlff9S+3cMRY8D39zI7aQqRMFVLfIKW0PjpBEj7D76OF3RacQeKkKfB4eWjF6d0KzrnQj3icMv9pQt0lxL24nP3txjkrpBh5H42+S+EEvGFiHzaCxONx+A2eElG9zU7vAJ72eRzvxAu4hxaKc/6I2oid7m0bfVd42mIdSiP5peLMpf7Cm0k47sD3v3FaHnQ3304iyDe89w+G39CYkZ/dDPw7KvqtqFYZixLcU53N2vGWLT0kTO5sg8Hotz7YbgWSnO0piYdh54Zy/EJotNpCLois6K8nIQ+MBwvTjL4NomCAPbiLjUTdh7yRejJktxlqEx/CKCsW3hcaTc0R7y7FI5dUaIKNv8olmQvAnbsvpi3NSuVm9a2Jf0QBmqQMC8r1XBxK2bJe1SBtQewWgmXEzJysC1c7vw7aLDpQ5ni1Fny/wbo1NNY9NpTEe3xnC9koVskcMgf6VZdeIOO0PM8DbuYZrHzV1MAmZf1eexOsIoB5fFJrFy0snDKnVXRE/KwLqtX+PDDdeh8fRGj75i96y4+VBlZ0LbyAMe6jIXN4fGaNo4B5ez5UW1/FGNR3MN8o6liTF3l3JH0aosYV9jad9d4yTGIDI0Ru/7x0O7YTv++8H3UDfrAJ/u4Yjs1xEu17OhveaO9ia79sSeAXcxC2BncG5Z/iYxa6ue2owMODVvWW597Cz2Nk4mZj0O7URSK18Elcze6vtJQoboJ7DkWpSBzAxHuHvIyd9rtrmJ/pCdk4aT/1uIFONcsdhsdjkXCC07ZVTGirqhi8l5pRY3zoUldwTaLDGyd9eYnndN3OHmYBBoXBd9V/S/Ls0sL3vyvMnWJmH94szSJz8KtNAWd4ZwRx+cHBvC1cXypuHs8TT43TGqDm1us90sjL11CFj21FvHt2p5ostNQuzRHPgN89bf8WqaauDs2RsTJoeUK5wZ4mJeCDEtW1JyUUYm8jRuN6b2ysJSCSHyaAKcuSKl2LC+JrNlXxGiL9a+TGW7WlWxmtm1wwCMmTJArOHl4VLSNny/bBkcH5uOcDd3aHK0yBYXrVZGh8W6XdbVRtC4WX98xViAu193tNh0GPsv9sfQctahdW4aYV9czMzsZ2pLx00qNz8MHSc+wrCcQty4fClWujyFmJ5u0KgzkZUlIm4AyoP2irgECpZKBPMOLdu9sDwxUaLAem4j48garDnti/uHlt7YGfrJQcRd6osIs3Xo/ISDSNJ1w/36mRrR3xxUJcsbJaCK85GfWwAX+VXsB3BzdUe76CkY5mUpfJVFqxF9M++MmLkRGW/cHF8RfdW4nCHK06izkSn7n8lNohhBNxZC3sgfwyaOQUDZm9sSJ6zd/Bn98wgYADfP6vtf2foyff0nYDFxW+erLB+zOn0AqxeuQLLnSEQFGdaC3buFwivlF7Gr+08hwjIUQns+HsfF2qkhFCD7+C7sOGO4X9ZdTcJP236DR3CQft1WJS4prmJTUdr530tG3K7wCw1Ext5tiEs32CjIEGK054r+uHw8KeXoAcSfkQIuNnmdjceBw2JjVElp1flP+rZnt9jkIisiNlq1bN8OGkexsU260S4IoS1+w/atwk95YRI8zu0QG6Q0QQiSF8GMZByITUSalXlIVfMwREU4YM/Sb7HzN/EMtD5/ITKE7+sWfIYtKeIy1a4nerolYfvmk2J0YbCfvG0Ljlw1XMJ0Yhx9/Nf9OJtt+O4qnkn3aFSEomuFYtmgM3oGOeDA5t1I0WMuRHbiJlGWcYwiDtnwT+awFSzbSEyZyna/KNo99pKh3cWa+Ll9+3FK+luNsmz5UV/itEfEevBWNUZMFEsjZe589P1kgAN2in4iNyLqu5J8zOqo2E+w+hy8RwyFj/6ZdCe0a+2BtMTjhv4mNoQlb96Co1cNhGR/CA11xIGfd+JsSf9B/mUkxZ/Sj84rG9y7B6Gt2CT287Fsg0/iUcVdWw7d6OvG8uI2bbnRP/MuHceeuEv686Znc9GvfxJll5wbhVli41eCiLMRdLpMMZOWjYw/y5/yt5GdUSRgk4D5gMNm4ls1MufgUrx4pMQ7+WKN5l7w7x2DGfJFJSWHVU1DMX5SATZuFNPC68QuTZGuiXgBR+gdYv1Zv09ajQ59ekO9fxE+XC7FyQ0dg0cjZkjrEguu6D5kGBKXfYM3X3FEyLjnMLr7PZicJ3ZxL52DtXli12gDsYt70IOIEhtF5EsMjm1ejdiOkxDUyQ2X4tdj9Zk+6BAo1kKreVukEr7r0rZgyT+XCT+F72oNfAdHo58YzajQAgP/MgZYtx7z3hP1kLtRvUIxepK4yMrpwAt7sfr7qxjZxQ8tLXbKOqFD5HQ80ky8gGLL59iyxMDJTfAMDBuJfuIZaJWY7I+ceB8KV2/AvLeXiYfQxS7uXqHo3U7s4hakVMVOcC44jY2fb8UlcUAtLtLN/EeJ3fKGIbLP8IkYuWEVvp27FYVOoq18ByI0uBn2lVC27Z+YNE0Xa9Bvl1mrF/lKX1RirY1Eu08uwLoNS/HOxlyondzErvYgDOtWhoWPYFHBDvcS926b/+RmwP07EtFu8AuG3fcmNRf95I7JmCL7ycbPsfEr0U8KClHUtBvuHveIyYtKWvS7B0MursJ/394Jtegr3uHBCG5t3EPgBK/hkzF681qs/fQ9ZMj+4iL2XoglkRby5q+S54ncKDh+Qh7WbpiPd1br0NCtDXqGh8En+fcS7w3l3btxLVbNf0vMAonNoSKNf8TdKFI1E/16AtTrtoqlGXFeiZ7bsLGI6zcc3UVu/bYPa0E8v71nzWoUjfCDfyuFpoGslcNjtyUBVXp6us7Z2RlqtRqOjo5QqcRFuMzndqFybPkb2NViJmYMKZ2uVrLuOvGo1tcbGmH0eDm6rr0gbxy2fXUI7SfdDd9KXgBrwutb3b+aYHArlCFnQnbN/w8Ot52AyaPEnoRrmTiXWoC23i0tNklJf3OT12D+1xfRe/pURJRsmrwV6kEfSKAuE7gFL9F1GWf5vhfluyNsWPdaFWfpnSqvEO0GRd6S4lwX/Cu/hetXjAruCB8TjU5ZP2Hem3/Hm/9ZjB3iuffyJnIbeo/E+KHO2LnwG+zPsLViW784sTYkcDMJcARdQvdmj6BvZiPSNgncGgQKkfn7JTh5iT0RvPW/NZqEXtRpAhToOt18dJ4ESIAESKC+EuB9bn1tWdaLBEiABEigThOgQNfp5qPzJEACJEAC9ZUABbq+tizrRQIkQAIkUKcJUKDrdPPReRIgARIggfpKoE6/qGTevHn1tV1YLxKoNIFZs2ZVOo+tDDy/bNFhHAlYElD6HOQubkvGPEICJEACJEACtU6AU9y13gR0gARIgARIgAQsCVCgLZnwCAmQAAmQAAnUOgEKdK03AR0gARIgARIgAUsCFGhLJjxCAiRAAiRAArVOgAJd601AB0iABEiABEjAkgAF2pIJj5AACZAACZBArROgQNd6E9ABEiABEiABErAkQIG2ZMIjJEACJEACJFDrBCjQtd4EdIAESIAESIAELAlQoC2Z8AgJkAAJkAAJ1DoBCnStNwEdIAESIAESIAFLAhRoSyY8QgIkQAIkQAK1ToACXetNQAdIgARIgARIwJIABdqSCY+QAAmQAAmQQK0ToEDXehPQARIgARIgARKwJECBtmTCIyRAAiRAAiRQ6wQo0LXeBHSABEiABEiABCwJUKAtmfAICZAACZAACdQ6AQp0rTcBHSABEiABEiABSwJOlocqf+R6IXD8dx3OpulwJRfQio+mIdBEfDq0UqFbBxUaKFJS5X1jDhIgARIgARKoiwSqJZuZWmDt/mIcOamDFGnrQacX555dVIjq6wD3RtZT8SgJkAAJkAAJkEApAVV6errO2dkZarUajo6OUKlUJh9rsHTi4KZDxdi035YwW+aUQn1XXxWGBjtAZRnNIyRAAiRAAiRgF4GrV6/q0zVu3Niu9HUxUaVH0IXFwDdbi3EwUcp05YIcZf/4qw4XM4oxYYgDnLgCXjmATE0CJEACJKAncP78ef3/AQEBihEpLCzEoUOHYBR/o2EnJyf06tWrxm8GKi3QSzcVI05MaVcnxCboUFRcjMl3UqGrw5F5SYAESOB2JCCF9OLFi/qq+/r6QgpoVcPWrVsrzCrL279/v0m6yMjICvNVN0GlFHJLfPXF2ehwXJIO2w6L4TgDCZAACZAACVSCgHH0LLOU/bsSJupEUrtvO9KzgfW7qzdyNieyVkx39+gENHMzj+F3EiABEiABErBOwDh6lrHy706dhJBUMdTESLiKrsFugf7pQDHk+rOSQdr76WAxHhTr0QwkQAIkQAIkUBEBKcj5+fk3ksm/5bE2bdpUlLXceHumuctmrilRt0sZs8VzzfZsCnNtALT2AJzV5XKwiJDr0dl5Fodv8wPXcOiDu9En6gMczFd21uI2B8vqkwAJ1BABKZoJCQmKlCY3bWVlZek/f/zxh4VNecwYb77ByyJxHTpg1wj6mHgJSbENnWgsXkgyZpADenZWwUE8P6UTaQ+INebvxG7vikbdYq8YTgj7YQFVe/Dq2sb/Q9CM73HNCN3RGc6alvDtFoYh907Ew6O7o+wM+vZXwjBjXQTm7X8PkU5VK1OJ9rXlhy71B3yypgn+uuBphLjcHB91J/6NEaP34cEtX2Ni26qVYcG+DBiXTjOwfOMz6G4v46JsJO85BbcBvdBCCcC0QQIkUGsEzMW5sjutZf6TJ09Cbs6yJ2RmZkJ+zIPcPCY3kVVndG1usya/2yXQCWdtqLPw1qedCsHeKlzK1OG0uLnpIYS6j78KiedVOCiEuqJwQtivqkBL22rXu/HutjcxRC2F5hqupF/AiT1rsHjOOKzb+Cw+/c8k+JQIXbeoZ/BSj7YItFc4KnK+ivHl+aGDFjv+uxwuj/4LD/vbNcFRRQ+Uydag8RjM3fVGCfsyNuWNkl29qyTPrrcw/m/Ae4eCa/XGSRkqtEICty8Bc3GW32WojEhLQZUj4epuAJN26qo4S2Z2XULTsmyLbLx47Orja8VIviBG2mJEnHdNhcggB7QU0932hDQh7NUJKkcXaDzc4FYium7uLdDeNxjD7uiOWWNfxbPze+GHpwL1RbQIG4OYMBulFYk4RxvxCkWV54cKGgx+/X8YrFA5N92M6EENGkkxrtoo/Kb7xwJIgARqjEBZcTYKspzmropIy5GvfAlJVafJZfl1WZxlo9k1RNPmVNy+J88ZxFlOcXcRI2oZzhpunCrMbI/9Co1YSaBqOxqzHwpA8orl2F1ouAk49ckYBN/3Gc6J9Dok45P7euDhhb9i+ZuTMCyiLyJmrYLYsA5dXjLWvD8LowYFIyAoCEPuewKfbDprUsrlfV/j7w8NR9+gAHTtGYHoh9/GisNXbqSxFV/WD5lBjpwPLXkdD44IQ1D3AAQPFr7/cwPOl+6FwJ63hqHvE6tw6Ic3MHX0KAwb0hdhd/wFr686WzrFb4WDLisenz83EcPCuiKg1yA88PjH2JZiufB/ed9CPF9Sn+A+d2LiS8tw/Er1bp6ubX4WfQa8hQ17lwrbYzFq+CCEDbwb09/disvC12JdPN65KxCdp6/En1dXYlqAN7z9++KNHcWQeXsPfAUbdszHk2OGIKzP3Zgba9ipWJGvOu0JLP+7aNO+ov1EnaNnfogNv87HA91G4ZPE0t2O+afW4h+PROvbMDj8bkz7xyrs+Xwygu/6CMdK+owVpDxEAiRgRsBcnI2jV6NQm4+s7QEobQQGBlbqOWc5rS3z1HVxlnzsEuj86/agNKR5QOzI9myhQsJ5nX5t2Z5QGfv22CubxkeIq8efJ3BC+GMZmkDTVIW9c99BfMDL+HHnPuz89F4xhr2AFc88hPeO++PFZXuQEL8PXz3VCbtffgxzDhuELT/ufTz88H+QEvwsvtywFzt+/Ddmhudg3y4p/UBF8aa+XMOJTx7BtP/+jv7/twSbdu/D6n9NQIMdL2Pqcxv0NwwyuLlpoN0+B/9OGID3vvkRP2/bhzXPd8b2V1/A8jPWt9jripMx/9Fp+PSUH57+Yjv2bV+JV6Ny8MVrS3BazhaUBL2/M36Aw6j/YNPBBMT9/G+Mur4YM55brRfSqgbnRm5wuLQSH3yZiQfmLsePP+3A9m+mQL3qabzxvyyxZyEIL2w8itMLxqCZmC7/PCEZyYn78KrY0yDzOv7xIz74qhDjPtmKvfvX4qlQBwNbG77qii/g68dF+x3uiMcXbNTX+e37HLH0lc9wqozo6tLWiRu457DffQLm/2how5hm6/H3eaYvJKhq3ZmPBG4XAtbE2Vh3KZTVEekWLVro3+Jlz8tIjG/8knnqQ7BLoOXubHtC9AAVwruqkHxRh4XrrQuGNTuuLtaOKnNM10RMfauuIdvGLIBzn2l4fkwXOBuLjPsWn271wqPvPIbwNtI5Z3hFPInZ9+rw08pDYrSbjjX/XYmsoa9hzpOR6NamCVp4BeOuaf/Ah48FVhhvXrPi/F34/Msk9H96LmZG+qKFmxu8gsbgnbfGw3HT51h60sBSTiOrGwzCX58eghYlzjYfOgqD3I7gQPyNbXIm5q/t+xZLD3fBo3NfxF3dWgqRb4Huw5/D61N7wtisxvrkRz2PvwsObnKKv2lXjHn+YXTZvRw/pVq7uTEUc137I2aJUWpQSFCZT19MmHvUkEDYcnFsgbtnzkIvD8PMikv7uzG8L3Bk33FzFKbfS/KOEnnDWxry2uOrKnYRvtjvhRlzX8OoHiV1vvMp/OuRIJOZhuSVC7HbZTLeenscerVvArfm3hj0139gWl87O7xt7xlLArcdgfKmlcuKdNOmTSvNRU5125NPpqlP7+a2aw3aTbyL/GqZqVZrdEf1N6w7nxQX8wU/iunJAmuprB9zu4m/cKW6ko1snTNsldG2o6fJTu8Lx0/gj8ITWDDjHiwv43L2hdMoHnAZV3ROiDuci4BZYSb5jEl1umSb8eYUVKePIyHHH2NCTN/YogsIQ0CjRUg8JsTX11WfzcGzPTxNdnaL9V9nFa7lyHG2IU1Z+5d/S0Bu22CEme3U9u4VjJaOcfqkBn8zcR6vYcyR0rslnUqLPx2bIUT8jCjK2emtbngn3vz+GfQyWYN2gaum+Q03HFSeaOdVdo1atEdDZ/GzpMa5gbIem/4t87YVmw6NwR5fz4tReGabMIS1N10Xb947DD5OPxrqLJYUTpxIhlvITJOd5io0R6/eXYEz5fvEGBIgAVMCUoDd3d3h4lL+aMueNLa42vP4lD1pbJVxq8XZJdCeYvSSml7+KGpATxXuEL9QJYOjuCZOjTL8nZ4FrNhe8Uha2r9Z4XhsHDJbBKOr2cXaZnli6reB14P4RAiPtceEinW7DNnL3RhVsiZQbrz10p2t/MaXizhmY/Bv3ZDJ0XJGg2J0Whoj/XXGHbNX4KOxlbu71W/QEzcN7Suoq0s1Nt6Z5q3Y1/OH7cBSksRB3LwxkAAJVJ+ALXE2WrcnjTVP5MtIyr6cxFoaecyYrqrllGe3to7bNcXduY1tAW3RpNR9mdbf0/Dp2Mq+anVubdu+fVYsU+nOf495ixMRMO4B9KtAQMrmbi82KnmkxmFvOVO7KpXYFObviIQ9e26sD5fNX1G8uac6r25ipJyI+DIbzGQa1clDiMvtCP+AqouIoS4nEJdmWmr6kRO4ULIGbfQ36cAhm5vNzP1W9ruoY9E1G78rbijNHl9vtJ/ZvoP0A3vFGnSJHbHTwLuLJ7KO7jbZDKbfrHfglLJVozUSIIFqEbD2jHP79mJgID7mwVpa8zR15btdAt29o/yN6PKr9L+dOjzxcZHF54PvKh49S7tdhf3qBF1RPrSXL+Nyyed8wl5sXPg6xo5/Bb+FvII3ZnaplHld6GRM6X8Onz71D6w5dA7Z2Zdx/tgOLHl1Gl5aeUmMaZvjnkfGwnXLu3hh3lacuiym0VNOYPuiF/HMx0crjDd3xqHxQEyb6oftHz6Pz3edFOVl41z8Wrz20mIU3TELY6vxPLQudAIeDD2GRS8vwCE5VS1C2uGFeHXBfhj3/hnro1r/Op76fJuhPpeSsXvtXMz668c4aGM3s2R/XfgrfS77uZZrfU3cvO7G7zqxzNCxOB4/rjiI839chnx7nbVgj6+y/ab2PYlPnxHtd0S0X+ZlHPtpLp77+ozJkkTXMZMRkvUNXnl1NQ6dv4Ls9GTxDPoL+DzW8Duz1srnMRIggZonIN8SZgxynblPnz76F5DIj/y77Pp0fZrmtmuKWyOWNjuJNcjTKeVPc1e1yToLu26WS6eVMleQJ3b39l9ryCOmUp017eHbMwzDn12OmGjTN4nZY1jl4ImYj75Ck4/mYMFT0XguNR8urb0REvkAZka01JtoEv4yln7WHP/85H08OP8sshuIt5f1HoaJj3vZFW/qhzO6zvwMCzRz8M9/TMTHv1+BqlVX9Bv1Fr6cNaJab9ZSOXhj6kcL0ODDf+L5UfOR5uiGDoGj8OhL05D65IEbbhjq01bU5z08+K+T0Oqao71geNdfZlmd5jdmLNCuxczQEvZlKnXjTWKmFS33m6rjZLzw3G9iB/UkDHm3HWZ9tRFPlZO6Il9V8MSDov0afPguPn5kOJ7XatBlwET87bVJWDjpfzesysfw5nyhw5w5n2LGiBdwXeON0Ltn4fVHr2LminIK52ESIIEaJ6DVavW7uK29FUxuCpO7vOVOcvn2saqMoKVte99aVpPT56r09HSds7Mz1Go1HB0dxUhZjpZLP8aW2Juow7ebKx4RV7blHrzDQf/WMQYSuNkE5OtNR46Ox5QdX+KBm7jv4WbXg/ZJ4HYiIIXzzJkz+l+squhRq8qkLctQirp8IUpF69xSnOVOdbkhriaCXSNo6UgvHxXW/ALkVLCbuzJONxIb/oKEXQYSUJrA5d1fY2OmP8J6+UI8QSWWIOKw+P3vkNP/WQyhOCuNm/ZI4KYRMI6c7SmgMmnL2pOC269fP3uKqNE0dgt0A5FyULAK6/coN809qJcK0i4DCShNwFm8fvTct+9h8RsncT4jH87N2yMw8lH869noai0ZKO0n7ZEACZBAeQTsnuKWBuQbv17/qgiV3P9jtWzxGCz+PtkRLpX4aUqrhniQBEiABEiABOohAbt2cRvr7SIenB0onnlWIkSI0TjFWQmStEECJEACJFAfCVRKoCWAweJXquTacXWCzD+4R6WLrk6RzEsCJEACJEACdYpApVWyoRhFR/WrdDYTKHeL/Pa+37tO0aSzJEACJEACJKAQgSopbb8AFbxaV80DT/EjI+EiPwMJkAAJkAAJkED5BKok0PLtX2PFzwHaeruYtSL1+QZXPp81WzxGAiRAAiRAAvWZQJUEWgLxEr/53C+wciNhmb5jq8rlqc/wWTcSIAESIAESKI9AlQVaGrxXrCU3t/PHjzzEyyKiw6tVXHl14HESIAESIAESqHcEqqWY8iUjMeJVnQ4VDIrl1PaDQx3gzGee610HYoVIgARIgARuDoFqCbR0qZP4qUj5hjFbYYiI9xE/isFAAiRAAiRAAiRgH4FqC7QsZlSYAzqU85vR7cWPP0WJeAYSIAESIAESIAH7CSiinI7CyuRhDpCv7ywb5LPOk4c7wkmRUuyvFFOSAAmQAAmQQF0noJh0emiA8WKd2TiRLf+fINanm7vVdUT0nwRIgARIgARqnoBiAi1d79lZhTt7GyT6zj4q/XcGEiABEiABEiCByhNQ/MceR/YRU90uxXzXduXbgjlIgARIgARI4AYBxQVaPlI1pKeiA3M2FwmQAAmQAAncdgSopLddk7PCJEACJEACdYEABboutBJ9JAESIAESuO0IUKBvuyZnhUmABEiABOoCAQp0XWgl+kgCJEACJHDbEaBA33ZNzgqTAAmQAAnUBQIU6LrQSvSRBEiABEjgtiNAgb7tmpwVJgESIAESqAsEKNB1oZXoIwmQAAmQwG1HgAJ92zU5K0wCJEACJFAXCFCg60Ir0UcSIAESIIHbjgAF+rZrclaYBEiABEigLhCgQNeFVqKPJEACJEACtx0BCvRt1+SsMAmQAAmQQF0gQIGuC61EH0mABEiABG47AhToWmzywovx2LX7JLS16AOLJgESIAESuDUJKP570DVdzZTNH2Pe5lRAXVKygys8WnZAQEgEIvp0hMZ4C5L8I97+PBVD/u8R9PMQP1pdQ0H6Nz/eBzNmD0e7MrdDOt1l7Fy1BZkDZ/13LGwAACAASURBVEBTDV/Stn6Krc2nYnyPBtWwwqwkQAIkQAK3GoE6L9ASaKOQGLw0tquBbXEeMn4/hp0bl2L+qRGYFhMCDxnTdgBi/poLD7eaE2dZbKvQ+zHd3wWtzOYqrh7einOdRiOme8Mq9Ym0hANIcemMlmoXcW+Sj7Skw0ht0A1Bnapmr0pOMBMJkAAJkMBNI1D/prjlCLpzb0RPGQvv1A34OT7HAM/VHR06toOmhm9JnJq2RQdPD5gXqwkah8nDO1oct7elXRuqoT2+Hqt2ncSRjd9iZ/J1OLnYm5vpSIAESIAEbnUC5rpxq/trt38qFz+EBjbComPJKAzqAce0bfh0fjoGvzIW/qrf8L+3tqNhlDcyDyYiK9cLgx8fhYD8c9i5biPizl9BgRiXNvOORPSoQHjob2MKkXb0Z/y0/SjOZl2HumErdAwegqjBvmIavfw4HPwKc4764dmpYXAVVnJT9mL9ul+RcCkXcHJDx+6RiBohyhAtobuwAXOXF6L/gGIkHbuE/NxsaJ28ETnmXgQ3Nx35azoEIVx1GUl/NkbAdS28+vRDd7M0dsNiQhIgARK4zQls2rQJ8mMr3HnnnZCfmgr1VqAlwJatPFBwMg1/yr9NiDrCQZ2Mg/HdMH3KLLSU4ohM7P5mGZI6TcAjY9sLMb2KxNUL8d3mppgxrD1yk9djyerLCHpwBiZ1ckNh9jnExWejQIi3rTjj0rgsXpcdi+8X74PbiMl4IagZnHLFDcF3S7BonTP+Ft0Fjg1c4JS+HUeypiBmakfhQyFSti7A5+sPwX9SiF7gjUH6G7/7CkKjR6P71e347tdT6BXtW+URuQkefiEBEiCB24yAUXjLE+maFmeJv/5NcdvVqdRQO2jgH9ZbL876kBqLvZd8MXiQFGcZGsMvIhg4dhwXxLp20r54NOgThaFCnGVwcvNC74juYn3bVpw+6Y2QeTQWp9sMwDApzvJoQy8MvLMXEH8YJwt0+nQqp84IGdChxAcntO3kCde0y8goLmNIpoM7eo8fg+CmKqg9hyCG4mwKiN9IgARIoJIEyhPh8o5X0nylk9frEXTapQyoPYLRzBoWnStcxDquMaiyM5GtTcL6xZmlO78LtNAWd0aueBAqI1MHd3/9djOToBMj7fLizNNqs7RwddeYjITRxB1uRanQ5hlSOzk2hKuL2Ua24gIx5c5AAiRAAiRwswmYj6RrS5xlPeutQOtykxB7NAd+w7z1lTSMT8tvWl1jIZSN/DFs4hgEqM13euchpwnwW2aGMNDaxIhKjLQ9yokzL03TVIO8ZK0Yc6NUpLVaZDu6QSOH7fnmOfidBEiABEigpgmUXWeuyTVn83rWvylu+ZjV6QNYvXAFkj1HIiqokXmdrX9vF4SezZOw/adT0BYakhRmJSM+4ZL44gr/XoHI3rcRu8+LzV0y5KaKNeBEZNiMMy3KPTAUnVN+wdaEbENEfir2bIoDgnrC1+KmwDQvv5EACZAACdQcgdocORtrWS9G0DkHl+LFIyVVEo9ZNWvuBf/eMZghX1RiZ3uqVC0QOXEC1Ou24r8fLBOjXDUaNm4D/37D0V3YcO16D6bkbcTa7z/Clhwd1K4adAyMhLdYG7YVV7Z4lVsoRk8qFLu4F+DdH3JRIHdxdx2BySO62DXKt7MqTEYCJEACJFAPCKjS09N1zs7OUKvVcHR0hEqlMvnUgzqyCiRAAiRAAiRQ5wjUvynuOtcEdJgESIAESIAELAlQoC2Z8AgJkAAJkAAJ1DoBCnStNwEdIAESIAESIAFLAhRoSyY8QgIkQAIkQAK1ToACXetNQAdIgARIgARIwJIABdqSCY+QAAmQAAmQQK0ToEDXehPQARIgARIgARKwJECBtmTCIyRAAiRAAiRQ6wTq9JvE5s2bV+sA6QAJkAAJkAAJSAKzZs1SFATfJKYoThojARIgARIgAWUIcIpbGY60QgIkQAIkQAKKEqBAK4qTxkiABEiABEhAGQIUaGU40goJkAAJkAAJKEqAAq0oThojARIgARIgAWUIUKCV4UgrJEACJEACJKAoAQq0ojhpjARIgARIgASUIUCBVoYjrZAACZAACZCAogQo0IripDESIAESIAESUIYABVoZjrRCAiRAAiRAAooSoEAripPGSIAESIAESEAZAhRoZTjSCgmQAAmQAAkoSoACrShOGiMBEiABEiABZQhQoJXhSCskQAIkQAIkoCgBCrSiOGmMBEiABEiABJQhQIFWhiOtkAAJkAAJkICiBCjQiuKkMRIgARIgARJQhgAFWhmOtEICJEACJEACihKgQCuKk8ZIgARIgARIQBkCFGhlONIKCZAACZAACShKgAKtKE4aIwESIAESIAFlCFCgleFIKyRAAiRAAiSgKAEKtKI4aYwESIAESIAElCFAgVaGI62QAAmQAAmQgKIEKNCK4qQxEiABEiABElCGAAVaGY60QgIkUG0CV5H4604cv1hQbUs0QAL1gYBTXa9EyuaPMW9zKqAuqYmDKzxadkBASAQi+nSERuFbkMJiwElhm0j+EW9+sQeFrq4wNEghCh006NhtIKJG9kXLBoCs5/x4H8yYPRztlC7fpBMUIu3wVmzZfRSnUv9EnuDZrKU3AsMiMDDEE6612WEsOBmccXD0xj1PT0Cgs0p/QLE2OrMe848I5tFdarPWt2jZeUg5KPrJ3mNITruCAtEzWnt1R/CgoRjo41Yln/OOrcf6Y60QE248mU3NaA98hTlH/fDs1LDa7Yclbul0qdjzzSrsPH0JecWu8Ow2BCPv6Yt24ny1COxLFkh4oGICdV6gZRUbhcTgpbFdDbUtzkPG78ewc+NSzD81AtNiQuBRMQc7UlxF3Def4Df/JzGul7Uz0A4TNpI4e0RgohDfjkbxzU/F7hVLsehHDWaP7opWofdjur8LWt1kcT67dQGWHGyIiLtjcK9fK3EhNPDcs2U9dreejqHtDCJooyo3Ncq5eQSmPlneTYoybVR48TgOpDdBl8aAq5MK2otJSExrhOCeniU3UDe1inXAeCHObl6EJYebIDJ6Gv7i0wxO4ry7cHwbNnz3CVKiZmJ8UOVEWld0Dlv3FGHIuAi0vKl9XEm8arTqNRpPTBDnSf45bFm6EN9taovZUe1vFMK+pCTv289WnTkV7G4aOYLu3BvRU8bCO3UDfo7PsTurrYQ6MUbQXs0T/9ZQcGmL8CGBcPotCWfkqL1pW3Tw9LipAqFL34t1O4sRHjMJEQHioiN7RwnPqOmP1Lo4V0ResTZydoFj2kGsXnMIJw+sw4o954VS1+rcQUVVr9F4fT/5xQERMRPQT4qzLF30E8/AkYiJ7oxz67bg1DVdpXxSOXohavoEBDet3RvAyjitUrWAt/E8aegFnw5uyNNqTU2wL1UGKdOaEagXI2hrrapy8UNoYCMsOpaMwqAe+otI4cUDWLtuD05lXxcXFDd06j8S0b3lqCgP+xe/j8TOD6Djxb04lVWAvLwCuHUbhnuH+KLxlb1Y+OVmnLokxD7lPby7yRW+I/6G0T0ckBb3M9buOIoU7XU0aNgW/hF3IUpvU6ngpJ+9N5/e0yZswoqNh5CSI+ri6AHfkEgMGxoADyGquqvJ2LVuI3af+lPcUKjRrGMoIqOGwr+Ci19m0jFcbhOCiW1sXyR12UnYunojDvx+RQiXBzqEhkJzdBOuDX0Ro7s6oOByPNat3oLES7mGqU+f3hgSFQGfxsJuUSaObVyFn+Iu6KfPW/sNRFfVDuxzGovZozpVGZous7w2aoBc0e4//7QTiReEPw3c0No7FMOG90MH6Y+V4OThjd7hhbh4Olcsl1xFkU8f9O5SuRGhFbN19lDiyjew9I8IzH5ssH42KjNB9BOvIPRuZcnPpVsI/NZ+i+O/R8PHLx9xS9/HwQ6zMG1gc339dbpzWD9nBXDfbER1FvmLtUjcthpbDv8hzkKgYbMgRN4n+qqbpW19/mKxTr1pCXYe+h0Z+UAz30iMHtP/xrRy3tlfsGrtrziVIc5HNy+E9PfE72t+R6/np6JXQ2N567Al9iQyrqtF922LHhFRiAwUNxq557BTnDdx5+WUvThvvCMRPSrQcE5d2IC5ywvRv991HD/0B3I8wjF5fC9oSlpVV5CM+BPX4T20Q8kRw3/sSyY4+KWSBJTTkUoWXBPJW7byQMHJNPwpCmt59TBWLt6PxvdNxjPiYqsTU1KbvvgBG5vOQJSvGg0bFCLplzj4T5uMqc1V0BVdxq6FX2KZ00OYPigMU572w67P/oNzoc8hpmSKOzfxByzcmI8hD83G1DZqFFyKxfeLvsZK58cwvkej6lVRXCx2bTkKdL0XnkJ05cXLGHT5J7Bu5Qm0m/Q4pnZoCOSmIj4uQx+t0wm/lyzDMa8HMOsFX3EB0eKUmO7/bjEw+bE7bK5fZ6Rr4drS48ZFx1oF9Pa/Xokkz/sx66UAg/1NS7EkpQA99Bmu4sDadUj3fhjPTGsNp0ItzsYnoEDMAohbJJz9eRFWnQ/ExCcmC4Eswp8n1mPpMtFCva2VZv8xlbv1NtKJdv/+yy1QR8bgiSliDb0gE6diE8SaoW3bqbHxcOofjZGdL2L9iv1I6W6bnW1rdTu2Xa8RiM7xgvEWJSND9JNmcvnDSlB5oIVHEX4TaYCKloIKkbL1K6y50BuT/xaDluJqlBH/HRYt342W0/pbXZoqSI5FUrcYPPKcJ1zEOfzzFwuxYY8fpg1qDl1WLJYt3Qu3qGl4IahEcL9bglPXW6OX3lVDeSsTO2DMX58XN6xq5F2MR2xqHhyRid3fLENSpwl4ZGx7UTdxI7BaTFlvbooZw8SUdQMXOKVvx5GcaZgys73ZDXgejq9ejXNeozDNynnPvmSln/CQXQTqtUCXJZB5WJzYbcLwbMlISOXihYHhTfBR3Bkh0GITkIMaTQJC0UeIswwqxxboN6ALdq2PR8rA4WhrsRiQh6TYo2gWPgt9hDjLoG4lRmb9YvGROJ7Xo3IbWa5l7MTCdw6UnvhiVNyxxwhMHtbFcjTuKEsrwNXMPBQKgXYSI/eg/m31PuguiAtORheMmOZTskFOA+9hYkRyaA3izw1Fu47WRyb6zPYEeUFLl/b9S+3fMRQ9DnxzI7eTqhAFV7XIK2wNjZNGjLD76ON0RacRe6gIfR4cWjJ6dUKzrnci3CcOv9hTtkhzLW0nPntzj0nqBh1G4m+T+0IsGVuEzKOxON18AGaHl2xwU7vDJ7yfRTrzA+0ixqGd/qA3oiZ6m0ffVt81moZQi/5oerEof7Gn0E46sj/s3VeEng/10YuzDO49w+G39SckZvRDPw/LvqpqF4ZhxrYU53B3v2aITUsTOZsj83gszrUbgmelOEtjYtp54J29EJssNpGKoCs6K8rLQeADw/XiLINrmyAMbCPiUjdh7yVfjJosxVmGxvCLCMa2hceRckd7yLNL5dQZIaJs84tmQfImbMvqi3FTu1q9aWFf0gNlqAIB875WBRO3bpa0SxlQewSjmXAxJSsD187twreLDpc6nC1GnS3zb4xONY1NpzEd3RrD9UoWskUOg/yVZtWJO+wMMcPbuIdpHjd3MQmYfVWfx+oIoxxcFpvEykknD6vUXRE9KQPrtn6NDzdch8bTGz36it2z4uZDlZ0JbSMPeKjLXNwcGqNp4xxczpYX1fJHNR7NNcg7libG3F3KHUWrsoR9jaV9d42TGIPI0Bi97x8P7Ybt+O8H30PdrAN8uocjsl9HuFzPhvaaO9qb7NoTewbcxSyAncG5ZfmbxKytemozMuDUvGW59bGz2Ns4mZj1OLQTSa18EVQye6vvJwkZop/AkmtRBjIzHOHuISd/r9nmJvpDdk4aTv5vIVKMc8Vis9nlXCC07JRRGSvqhi4m55Va3DgXltwRaLPEyN5dY3reNXGHm4NBoHFd9F3R/7o0s7zsyfMmW5uE9YszS5/8KNBCW9wZwh19cHJsCFcXy5uGs8fT4HfHqDq0uc12szD21iFg2VNvHd+q5YkuNwmxR3PgN8xbf8eraaqBs2dvTJgcUq5wZoiLeSHEtGxJyUUZmcjTuN2Y2isLSyWEyKMJcOaKlGLD+prMln1FiL5Y+zKV7WpVxWpm1w4DMGbKALGGl4dLSdvw/bJlcHxsOsLd3KHJ0SJbXLRaGR0W63ZZVxtB42b98RVjAe5+3dFi02Hsv9gfQ8tZh9a5aYR9cTEzs5+pLR03qdz8MHSc+AjDcgpx4/KlWOnyFGJ6ukGjzkRWloi4ASgP2iviEihYKhHMO7Rs98LyxESJAuu5jYwja7DmtC/uH1p6Y2foJwcRd6kvIszWofMTDiJJ1w3362dqRH9zUJUsb5SAKs5Hfm4BXORXsR/AzdUd7aKnYJiXpfBVFq1G9M28M2LmRmS8cXN8RfRV43KGKE+jzkam7H8mN4liBN1YCHkjfwybOAYBZW9uS5ywdvNn9M8jYADcPKvvf2Xry/T1n4DFxG2dr7J8zOr0AaxeuALJniMRFWRYC3bvFgqvlF/Eru4/hQjL8P/t3HtwlXV+x/HPSXKEBBJJuIhEggoICpgAB5ewi8pFFkG0W9x6qTi4XZ2xtLMz/afjdtpO6zqO7bY7s9Ms3da6XlBxt9sSh1uEgEBrAgkQBdZwCSLXBjHBJBI1J57+nnMOkhsJDl/cPHneZ8bBnMv3+f5evyfnc57n+Z1E1XisSvvctdPErUUN+7ZpyweJz8uxpv1av/mAciYXxK/bhtxbSrpbVHT62JHkEXe6xkUmqa58s3afSdRoqXNhVPZJ/H7v60kn9lSo6gMvwN0irw+rVPGuWxiV3Nrl/OP1VvaOW+TiDcQttBo2MleZqW5hm9dGboEiQw/o7U2uT++NyXkc3eIWSGUWqMB7E6yrUUVltU53cR4yNGS6Ft6eorIVr2vrAfcd6Pjro6pzva/5939T6Qn3NpWbr/ys/Xp740F3dJGoX7O5VO81Jd7CYu44et//7tCHDYmf09130nMGtKr186i7bHCj8gtSVLHxHZ2IM0fVUL3Bbev8MYq7q5v+vFd0d+s8R+6UqTfvp9y8V9Ym5t1dEz+6fYcOef1exra666OvPNb4nrsevCmsu5e4SyNtPvnE95PvpGir20+8hYjxXcn7mtUet56g+KhG3z1HY+LfSU9T7vAcna7el9jf3IKwmo2l2tOUEPL2h0gkVRVvbdWHyf1Hn32k/VWH4kfnX/eWPbFAI9wisbf2NiR6cl9V3Fa666t9/fz2dm8o/Wr/bK7dp7LdtfHfm/whbr9e77ad/N2InnULv953j3Vzi8Xq3Zm0BtV9fPFT/t28nIcQ6Fag4wFHt0/urQ9+unOFfvxesjvvD2sMydP4aY/oSe8PlSTvDg2K6MFHW1RS4k4Lr3GrNN3zrnZ/gCMy111/jq+TDmvUbdMU3vGifvprL5yydP3kxXpk1vBkhXRNnDVP1Stf09N/naqpD/ylFk+8V0ub3SruFf+s1c1u1ehVbhX3HX+shW6hiPdHDPZuLFbl9Y+q4IYs1VatVfEHt2nUJHct9DI/FoVc77HTpXrln1a6Pl3v4UyNvfM+zXBHMyEN1cyH75fWrFXRc24c3mrUvIgWP+reZL3TgcfLVfzbJi24aZyGdVopm6ZRsx/XE4PdH6AofV6lryScspznpOkLNMN9BzrkTvbPXvI9RYvXqeiZle5L6G4V95SIpuW6VdxOKvRlmvq1HFbJ85tU6+4IuzfpweMXudXyiUPkMfOXaMG6VXr9Z5sUTXNzNXamIpMHa3tSufv+3EnTM+4a9DNtrtW71134QyVdzZGb96UtWrNuhZ4tOadwWpZb1V6geRPaWIxxFj2scE+2F5h/vMWAO7ZUK/fOpxKr79uN3O0nc5fqMW8/KXleJS+5/aQlqtZBE3TPA0+0+0MlQ2fcq1mnVumXz2xV2O0rowsna/Lw82sI0pQ3f6kWb1yt1f/6nOq8/aW/W3vhLokM9T78fc3fE2+h4IMPNWv1uuV6tjimjKxrlV84XWNqjiS7T2zvD0pWa9Xyn7izQG5xqHvO+NvvUWtosNuvH1J4zSZ3acb9Xrk9N2Oge2zGfE10r44v++jq5r6/XfZmsVrvHqfx1xidBupqO9wXSIHQmTNnYv369VM4HFZqaqpCIfcm3Oa/oKjs/fXfa9vQP9WTsy6crrYce8x9VevVdQO0+EHv6Pr3d/M+OGx+aZdGPnqPxn7NN8Bvouve3t83YdAbtuGdCdm2/Od6d8RDWrrIrUn4vF5HT7ZoxOhhnRZJef2eq3lTy189pWmP/0C3JxdN9oZx0AMCfhbohW/Rfua8eO+tn2Vr+ryJv9dw9roLNUeVe8fsXhnOfujv4jPctx4JKVuF99+nG86uV9HTf6unf/6ytrjvvV/sRG7G6AV6cE4/bf3Va9pR190V277lxGgQuJICHEEnda/0EfSVnERqI9A7BKKqP1KrtDy3JoKP/r1jSujC1wIEtK+nj+YRQAABBPqqAJ9z++rMMi4EEEAAAV8LENC+nj6aRwABBBDoqwIEdF+dWcaFAAIIIOBrAQLa19NH8wgggAACfVWAgO6rM8u4EEAAAQR8LeDrvyRWVFTka3yaR8BSYNmyZZblxO+XKSfFAiBg/TvI16wCsNMwRAQQQAAB/wlwitt/c0bHCCCAAAIBECCgAzDJDBEBBBBAwH8CBLT/5oyOEUAAAQQCIEBAB2CSGSICCCCAgP8ECGj/zRkdI4AAAggEQICADsAkM0QEEEAAAf8JEND+mzM6RgABBBAIgAABHYBJZogIIIAAAv4TIKD9N2d0jAACCCAQAAECOgCTzBARQAABBPwnQED7b87oGAEEEEAgAAIEdAAmmSEigAACCPhPgID235zRMQIIIIBAAAQI6ABMMkNEAAEEEPCfAAHtvzmjYwQQQACBAAgQ0AGYZIaIAAIIIOA/AQLaf3NGxwgggAACARAgoAMwyQwRAQQQQMB/AgS0/+aMjhFAAAEEAiBAQAdgkhkiAggggID/BAho/80ZHSOAAAIIBECAgA7AJDNEBBBAAAH/CRDQ/pszOkYAAQQQCIAAAR2ASWaICCCAAAL+EyCg/TdndIwAAgggEAABAjoAk8wQEUAAAQT8J0BA+2/O6BgBBBBAIAACBHQAJpkhIoAAAgj4T4CA9t+c0TECCCCAQAAECOgATDJDRAABBBDwnwAB7b85o2MEEEAAgQAIENABmGSGiAACCCDgPwEC2n9zRscIIIAAAgEQIKADMMkMEQEEEEDAfwIEtP/mjI4RQAABBAIgQEAHYJIZIgIIIICA/wQIaP/NGR0jgAACCARAgIAOwCQzRAQQQAAB/wkQ0P6bMzpGAAEEEAiAAAEdgElmiAgggAAC/hMgoP03Z3SMAAIIIBAAAV8H9OlN/6JnXtyuxotMVOP2l/R3y7eo7iKPn7+7scI974VyNffwvMt5ONZYruf/5j+061zscsrom+i1qwYvu/8P1mp58YGuSnMfAggggEAXAr4O6KGR6RrxYaV213YOvVjspHbsOKZx34oop4uBc9c3IxA9tU9le47rY7e59LSQGk/tV8W7xxX9ZjbPVhBAAAHfCvg6oENZBSqc8Kkqy490esOPHq7UzuZ8Tb11gG8np0803q+/Uk/vVPGbu3SwYo1+U3bMJXV6nxgag0AAAQSupEDalSx+5WunadyMydrwQpmq77peEzNCyU02a2/ZHmVO+xON9UbYWq+9Jau0fvdxNaeka/i4mboltEXb076vv1h0Q6c2Y0012ramRO8c+lgtCmvw9RHNXjhH4weFFIsd0H//5G1lLByt+p3VOnsuT3f++SLd3OGjTsPhzVqzbocO1X2hjEF5yp9xbfvtnDuqrW4bu499ktjG6Nm6b9Ek5STrnDtVobfWb1X18XNquSpLw0dHNG/+jE5nA2IN+7WpuEQVRz5xwZejUZGIMvds0OdzfqzFt3yuHS//g6rzFumaEzt1qD6mm+95XLNHnu3Ro6f+uzNqO9C0nNGaVhjVqcPnlDOsSa1jbtO0m7I6mXMHAggggEB7AZ8HtBvMiIimDv+Fync3aOK3r46PLla/U+WHr9P0e69xP0X14VsvatWxSVryo6UaNbBVH/9urVasdCddp3XeHWKxj7TtlZXam/dHWvbUWGW6K9yHSlbojZelpX82VyNCqUoJ12hn1QQ9/tgyDetCMFZfrjde3amcRT/UUwWDleaF8Ruv6NAXwzXF60/1Knttpfbf8JCe+P5IpatJ1cW/0hsbB+nJeSMVa3pXv32hVOHZj+hHj12n9JZ6Hap8X81ftu833uur/6n91/2hlv3VzYleN6zQKydadGv8qWFlXBXVvrJqTXnyh/qu+4AR91jXvUeP/fdglNvhw8rJyiqlffs+LbjxlNb+ZodOTJyrjs/pPBPcgwACCARbwNenuL2pCylbk6ePVe32Mp2IB1hUR8sr1DihUJOy3BFv62FV7mrVbd+d48LZC6g0Db7lLhWOyeh65k9UqbLuJs2aN0aZnk5KpkbPc0fPjVWqOupd6w4r7O4bP31al+HsFf1ob5VOjpylBV44e3dk5GnmXVMuPP9kpcprx+rOO7xw9m4DNe72ydLeffEx1O+p1OEh39HCQhfO3sPhbI0pnKHxbjztbqdcr2dcr/PHX+h17hzdGh+nd3NbTwnrmltnamI8nN2Hg0vw6LH/Ho2Sm0/+k3v7A1p4S4ZC/Udr4RLCub0OPyGAAAJdC3Rx/Nf1E3vzvf1vnq6CDa+r8uAcjRh1UGW7UjT1B2Pj4Rj7okGNn2drZLuVYunKye46oEMN9WockKOccJswTBmoQQM/1UcNLQmGWLr6Z4QvStLc0Kj07Mxk+CafdnW2slJOxn/wttHQuF9rX65PBKt3Z0ujGr+8Uefc/0br6pQ2ZJg7Iu7+Fjrres3s3Gt2Zpo7Rr9wS89oc833Ejwupf/uja7qvnEe6qSmoQAACBtJREFURQABBBDoUaBPBHQoNU+Fkau1fPt7mnp2j2qu/ZYWXpsMWHf9NjNcr7NnncVXlz6b1fiJi8LEGfF2SLGsbGV+2qgGt8z4mvM6XzbpbNMAZWZdPJTbFskclKnmmsb417a+isZGVzN5ijo20IX1gPGat+R+3dz2g0CySJ17ffT9uvjXx7oL6VhWpuvVhX2HXusbu1kjfQkePfZvYNTjnskTEEAAgYAL+P4U9/n5y55aqJFH/ku/WP1/7vTzlK+CLZR6o/ILUlSx8R2d8A5P3SnwhuoN2nog/kPnW26BIkMP6O1NRxLXfL9s1tEtbrFWZoEK8jqcYu786vg92RMiyjtRrtJDiW3EYvWq2rpbp8/npttG/pD9env9IZ3P0ujZGlW9X3vh9af+R29V1iZWp0cbdXS7W3DW1OHrZLn5ys9ydTYedEff7qWu15rNpXqv4/Pa9HkpHpfS/+UaXYSOuxFAAAEEkgJ94gjaG0soY4JmTB6kAwcnafr4tqdY0zRm/hItWLdKr/9sk6Jp6Ro8dqYikwdrexe7QSg0VDMfvl9as1ZFz33sjoLdKu68iBY/Oie+sCnW+SvXnaqEBkX04MOfadXa5frp2v7uW0XuOvat+Rrzu+Px53rbmL3kIYXXbNIv/3FlfBsZA6/V+BnzNdE9nua9fmmLWwW+Qs+WnFM4LcutJC/QvAntNxUKjXB1vqdo8ToVPbNScqfmR02JaFquW8Xdqavzd/TscSn9d2d00U3zAAIIIIDAJQuEzpw5E+vXr5/C4bBSU1NdeITa/XfJlXgiAggggAACCJgJ9JlT3GYiFEIAAQQQQKAXCBDQvWASaAEBBBBAAIGOAgR0RxF+RgABBBBAoBcIENC9YBJoAQEEEEAAgY4CBHRHEX5GAAEEEECgFwgQ0L1gEmgBAQQQQACBjgIEdEcRfkYAAQQQQKAXCPj6D5UUFRX1AkJaQAABBBBAQFq2bJkpA3+oxJSTYggggAACCNgIcIrbxpEqCCCAAAIImAoQ0KacFEMAAQQQQMBGgIC2caQKAggggAACpgIEtCknxRBAAAEEELARIKBtHKmCAAIIIICAqQABbcpJMQQQQAABBGwECGgbR6oggAACCCBgKkBAm3JSDAEEEEAAARsBAtrGkSoIIIAAAgiYChDQppwUQwABBBBAwEaAgLZxpAoCCCCAAAKmAgS0KSfFEEAAAQQQsBEgoG0cqYIAAggggICpAAFtykkxBBBAAAEEbAQIaBtHqiCAAAIIIGAqQECbclIMAQQQQAABGwEC2saRKggggAACCJgKENCmnBRDAAEEEEDARoCAtnGkCgIIIIAAAqYCBLQpJ8UQQAABBBCwESCgbRypggACCCCAgKkAAW3KSTEEEEAAAQRsBAhoG0eqIIAAAgggYCpAQJtyUgwBBBBAAAEbAQLaxpEqCCCAAAIImAoQ0KacFEMAAQQQQMBGgIC2caQKAggggAACpgIEtCknxRBAAAEEELARIKBtHKmCAAIIIICAqQABbcpJMQQQQAABBGwECGgbR6oggAACCCBgKkBAm3JSDAEEEEAAARsBAtrGkSoIIIAAAgiYChDQppwUQwABBBBAwEaAgLZxpAoCCCCAAAKmAgS0KSfFEEAAAQQQsBEgoG0cqYIAAggggICpAAFtykkxBBBAAAEEbAQIaBtHqiCAAAIIIGAqQECbclIMAQQQQAABGwEC2saRKggggAACCJgKENCmnBRDAAEEEEDARoCAtnGkCgIIIIAAAqYCBLQpJ8UQQAABBBCwESCgbRypggACCCCAgKkAAW3KSTEEEEAAAQRsBAhoG0eqIIAAAgggYCpAQJtyUgwBBBBAAAEbAQLaxpEqCCCAAAIImAoQ0KacFEMAAQQQQMBGgIC2caQKAggggAACpgIEtCknxRBAAAEEELARIKBtHKmCAAIIIICAqQABbcpJMQQQQAABBGwECGgbR6oggAACCCBgKkBAm3JSDAEEEEAAARsBAtrGkSoIIIAAAgiYChDQppwUQwABBBBAwEaAgLZxpAoCCCCAAAKmAgS0KSfFEEAAAQQQsBEgoG0cqYIAAggggICpAAFtykkxBBBAAAEEbAQIaBtHqiCAAAIIIGAqQECbclIMAQQQQAABGwEC2saRKggggAACCJgKENCmnBRDAAEEEEDARoCAtnGkCgIIIIAAAqYCBLQpJ8UQQAABBBCwESCgbRypggACCCCAgKkAAW3KSTEEEEAAAQRsBAhoG0eqIIAAAgggYCpAQJtyUgwBBBBAAAEbAQLaxpEqCCCAAAIImAoQ0KacFEMAAQQQQMBGgIC2caQKAggggAACpgIEtCknxRBAAAEEELARIKBtHKmCAAIIIICAqQABbcpJMQQQQAABBGwECGgbR6oggAACCCBgKkBAm3JSDAEEEEAAARsBAtrGkSoIIIAAAgiYChDQppwUQwABBBBAwEaAgLZxpAoCCCCAAAKmAgS0KSfFEEAAAQQQsBEgoG0cqYIAAggggICpAAFtykkxBBBAAAEEbAQIaBtHqiCAAAIIIGAqQECbclIMAQQQQAABGwEC2saRKggggAACCJgKENCmnBRDAAEEEEDARoCAtnGkCgIIIIAAAqYCBLQpJ8UQQAABBBCwESCgbRypggACCCCAgKkAAW3KSTEEEEAAAQRsBAhoG0eqIIAAAgggYCpAQJtyUgwBBBBAAAEbAQLaxpEqCCCAAAIImAoQ0KacFEMAAQQQQMBGgIC2caQKAggggAACpgL/D0ptU04ONUKNAAAAAElFTkSuQmCC;" parent="1" vertex="1">
                    <mxGeometry x="340" y="590" width="414.12" height="370" as="geometry"/>
                </mxCell>
                <mxCell id="41" value="" style="html=1;shadow=0;dashed=0;shape=mxgraph.bootstrap.rrect;rSize=5;fillColor=#FFFFFF;strokeColor=#999999;align=left;spacing=15;fontSize=14;fontColor=#6C767D;" parent="1" vertex="1">
                    <mxGeometry x="377.06" y="900" width="340" height="100" as="geometry"/>
                </mxCell>
                <mxCell id="42" value="" style="html=1;shadow=0;dashed=0;shape=mxgraph.bootstrap.rightButton;rSize=5;fillColor=#F1F1F1;strokeColor=#999999;" parent="41" vertex="1">
                    <mxGeometry x="1" width="20" height="100" relative="1" as="geometry">
                        <mxPoint x="-20" as="offset"/>
                    </mxGeometry>
                </mxCell>
                <mxCell id="43" value="" style="fillColor=#C1C1C1;strokeColor=none;" parent="42" vertex="1">
                    <mxGeometry width="16" height="45" relative="1" as="geometry">
                        <mxPoint x="2" y="20" as="offset"/>
                    </mxGeometry>
                </mxCell>
                <mxCell id="44" value="" style="shape=triangle;direction=north;fillColor=#C1C1C1;strokeColor=none;perimeter=none;" parent="42" vertex="1">
                    <mxGeometry width="10" height="5" relative="1" as="geometry">
                        <mxPoint x="5" y="7.5" as="offset"/>
                    </mxGeometry>
                </mxCell>
                <mxCell id="45" value="" style="shape=triangle;direction=south;fillColor=#505050;strokeColor=none;perimeter=none;" parent="42" vertex="1">
                    <mxGeometry y="1" width="10" height="5" relative="1" as="geometry">
                        <mxPoint x="5" y="-12.5" as="offset"/>
                    </mxGeometry>
                </mxCell>
                <mxCell id="46" value="1" style="fillColor=none;strokeColor=none;align=left;spacing=15;fontSize=14;fontColor=#6C767D;" parent="41" vertex="1">
                    <mxGeometry width="780" height="20" relative="1" as="geometry">
                        <mxPoint y="10" as="offset"/>
                    </mxGeometry>
                </mxCell>
                <mxCell id="47" value="2" style="fillColor=none;strokeColor=none;align=left;spacing=15;fontSize=14;fontColor=#6C767D;" parent="41" vertex="1">
                    <mxGeometry width="780" height="20" relative="1" as="geometry">
                        <mxPoint y="30" as="offset"/>
                    </mxGeometry>
                </mxCell>
                <mxCell id="48" value="3" style="fillColor=none;strokeColor=none;align=left;spacing=15;fontSize=14;fontColor=#6C767D;" parent="41" vertex="1">
                    <mxGeometry width="780" height="20" relative="1" as="geometry">
                        <mxPoint y="50" as="offset"/>
                    </mxGeometry>
                </mxCell>
                <mxCell id="50" style="edgeStyle=none;html=1;exitX=0.25;exitY=0;exitDx=0;exitDy=0;entryX=0.25;entryY=0;entryDx=0;entryDy=0;" parent="41" source="49" target="48" edge="1">
                    <mxGeometry relative="1" as="geometry"/>
                </mxCell>
                <mxCell id="49" value="4" style="fillColor=none;strokeColor=none;align=left;spacing=15;fontSize=14;fontColor=#6C767D;" parent="41" vertex="1">
                    <mxGeometry width="780" height="20" relative="1" as="geometry">
                        <mxPoint y="70" as="offset"/>
                    </mxGeometry>
                </mxCell>
            </root>
        </mxGraphModel>
    </diagram>
</mxfile>